<svg xmlns="http://www.w3.org/2000/svg" viewBox="0 0 32 32">
  <path fill="#25D366" d="M16 3C9.4 3 4 8.4 4 15c0 2.6.8 5 2.2 7L4 29l7.2-2c1.9 1 4 1.5 6.3 1.5 6.6 0 12-5.4 12-12S22.6 3 16 3zm0 22c-2 0-3.8-.5-5.4-1.5l-.4-.2-4.3 1.2 1.1-4.2-.3-.4C5.7 18 5 16.6 5 15c0-6.1 4.9-11 11-11s11 4.9 11 11-4.9 10-11 10zm6.1-6.9c-.3-.1-1.9-.9-2.2-1-.3-.1-.5-.1-.7.2-.2.3-.8 1-.9 1.1-.2.2-.3.2-.6.1-.3-.1-1.2-.4-2.3-1.4-.9-.8-1.4-1.7-1.6-2-.2-.3 0-.5.1-.6.1-.1.3-.4.4-.5.1-.2.2-.3.3-.5.1-.2 0-.4 0-.5C14.5 11 14 10 13.7 9.4c-.1-.3-.3-.3-.5-.3h-.5c-.2 0-.5.1-.8.4-.3.3-1.1 1.1-1.1 2.6 0 1.5 1.1 3 1.2 3.2.2.3 2.1 3.4 5.1 4.7.7.3 1.2.5 1.6.6.7.2 1.3.2 1.8.1.6-.1 1.9-.8 2.2-1.5.3-.7.3-1.4.2-1.5-.1-.1-.3-.2-.6-.3z"></path>
</svg>
